<svg width="201" height="27" viewBox="0 0 201 27" fill="none" xmlns="http://www.w3.org/2000/svg">
<path d="M10.86 14.012C8.82 13.604 7.152 13.16 5.856 12.68C4.584 12.176 3.576 11.504 2.832 10.664C2.112 9.8 1.752 8.696 1.752 7.352C1.752 5.96 2.112 4.736 2.832 3.68C3.576 2.624 4.608 1.808 5.928 1.232C7.272 0.655999 8.82 0.368 10.572 0.368C12.252 0.368 13.788 0.727999 15.18 1.448C16.596 2.144 17.712 3.128 18.528 4.4C19.344 5.672 19.752 7.124 19.752 8.756H18.42C18.42 7.34 18.072 6.092 17.376 5.012C16.68 3.932 15.732 3.104 14.532 2.528C13.332 1.928 12 1.628 10.536 1.628C9.24 1.628 8.028 1.832 6.9 2.24C5.772 2.648 4.848 3.272 4.128 4.112C3.432 4.952 3.084 6.008 3.084 7.28C3.084 8.432 3.42 9.356 4.092 10.052C4.764 10.724 5.64 11.24 6.72 11.6C7.8 11.96 9.312 12.344 11.256 12.752C13.224 13.16 14.748 13.556 15.828 13.94C16.932 14.3 17.856 14.912 18.6 15.776C19.368 16.64 19.752 17.852 19.752 19.412C19.752 20.972 19.332 22.292 18.492 23.372C17.676 24.428 16.584 25.22 15.216 25.748C13.848 26.276 12.36 26.54 10.752 26.54C8.76 26.54 7.008 26.168 5.496 25.424C3.984 24.68 2.82 23.636 2.004 22.292C1.212 20.924 0.816 19.364 0.816 17.612H2.148C2.148 19.148 2.484 20.492 3.156 21.644C3.852 22.796 4.848 23.696 6.144 24.344C7.44 24.968 8.976 25.28 10.752 25.28C12.96 25.28 14.784 24.752 16.224 23.696C17.688 22.64 18.42 21.2 18.42 19.376C18.42 18.128 18.108 17.168 17.484 16.496C16.86 15.824 16.068 15.344 15.108 15.056C14.172 14.744 12.756 14.396 10.86 14.012ZM27.3204 26V0.943999H28.6524V12.788H45.2844V0.943999H46.6164V26H45.2844V14.12H28.6524V26H27.3204ZM63.6169 0.403999C65.4889 0.403999 67.2169 0.871999 68.8009 1.808C70.3849 2.72 71.6329 3.968 72.5449 5.552C73.4809 7.136 73.9489 8.864 73.9489 10.736V16.208C73.9489 18.08 73.4809 19.808 72.5449 21.392C71.6329 22.976 70.3849 24.236 68.8009 25.172C67.2169 26.084 65.4889 26.54 63.6169 26.54C61.7449 26.54 60.0169 26.084 58.4329 25.172C56.8489 24.236 55.5889 22.976 54.6529 21.392C53.7409 19.808 53.2849 18.08 53.2849 16.208V10.736C53.2849 8.864 53.7409 7.136 54.6529 5.552C55.5889 3.968 56.8489 2.72 58.4329 1.808C60.0169 0.871999 61.7449 0.403999 63.6169 0.403999ZM54.6169 16.208C54.6169 17.84 55.0129 19.352 55.8049 20.744C56.6209 22.112 57.7129 23.204 59.0809 24.02C60.4729 24.812 61.9849 25.208 63.6169 25.208C65.2489 25.208 66.7489 24.812 68.1169 24.02C69.5089 23.204 70.6009 22.112 71.3929 20.744C72.2089 19.352 72.6169 17.84 72.6169 16.208V10.736C72.6169 9.104 72.2089 7.604 71.3929 6.236C70.6009 4.844 69.5089 3.752 68.1169 2.96C66.7489 2.144 65.2489 1.736 63.6169 1.736C61.9849 1.736 60.4729 2.144 59.0809 2.96C57.7129 3.752 56.6209 4.844 55.8049 6.236C55.0129 7.604 54.6169 9.104 54.6169 10.736V16.208ZM83.2813 26H81.9493V0.943999H92.0293C93.7093 0.943999 95.2573 1.304 96.6733 2.024C98.1133 2.744 99.2533 3.764 100.093 5.084C100.933 6.404 101.353 7.928 101.353 9.656C101.353 11.312 100.921 12.836 100.057 14.228C99.2173 15.62 98.0653 16.688 96.6013 17.432C95.3293 18.08 93.8053 18.404 92.0293 18.404H83.2813V26ZM83.2813 17.072H92.0293C93.5653 17.072 94.8253 16.832 95.8093 16.352C97.0813 15.752 98.1013 14.852 98.8693 13.652C99.6373 12.452 100.021 11.12 100.021 9.656C100.021 8.216 99.6373 6.896 98.8693 5.696C98.1013 4.496 97.0693 3.596 95.7733 2.996C94.7893 2.516 93.5413 2.276 92.0293 2.276H83.2813V17.072ZM106.798 0.907999H108.238L116.986 16.388L125.698 0.907999H127.03V25.964H106.798V0.907999ZM108.13 24.668H125.698V3.608L117.598 17.864H116.338L108.13 3.392V24.668ZM142.878 0.943999H144.282L154.578 26H153.138L149.754 17.72H137.406L133.986 26H132.582L142.878 0.943999ZM137.946 16.424H149.214L143.562 2.672L137.946 16.424ZM169.347 13.472L159.735 0.943999H161.463L170.211 12.356L178.995 0.943999H180.687L171.075 13.472L180.687 26H178.995L170.211 14.588L161.463 26H159.735L169.347 13.472Z" fill="white"/>
<path d="M193.583 23.264C193.583 22.376 193.895 21.62 194.519 20.996C195.167 20.348 195.947 20.024 196.859 20.024C197.771 20.024 198.539 20.348 199.163 20.996C199.811 21.62 200.135 22.376 200.135 23.264C200.135 24.152 199.811 24.92 199.163 25.568C198.539 26.216 197.771 26.54 196.859 26.54C195.971 26.54 195.203 26.216 194.555 25.568C193.907 24.92 193.583 24.152 193.583 23.264Z" fill="#C44345"/>
</svg>
